<svg xmlns="http://www.w3.org/2000/svg" viewBox="0 0 232 232" width="232" height="232">
<rect width="232" height="232" fill="#0E1218"/>
<g>
<rect x="80" y="24" width="8" height="8" fill="#EDEDED"/>
<rect x="96" y="24" width="8" height="8" fill="#EDEDED"/>
<rect x="104" y="24" width="8" height="8" fill="#EDEDED"/>
<rect x="120" y="24" width="8" height="8" fill="#EDEDED"/>
<rect x="152" y="24" width="8" height="8" fill="#EDEDED"/>
<rect x="88" y="32" width="8" height="8" fill="#EDEDED"/>
<rect x="120" y="32" width="8" height="8" fill="#EDEDED"/>
<rect x="152" y="32" width="8" height="8" fill="#EDEDED"/>
<rect x="120" y="40" width="8" height="8" fill="#EDEDED"/>
<rect x="128" y="40" width="8" height="8" fill="#EDEDED"/>
<rect x="136" y="40" width="8" height="8" fill="#EDEDED"/>
<rect x="144" y="40" width="8" height="8" fill="#EDEDED"/>
<rect x="104" y="48" width="8" height="8" fill="#EDEDED"/>
<rect x="128" y="48" width="8" height="8" fill="#EDEDED"/>
<rect x="152" y="48" width="8" height="8" fill="#EDEDED"/>
<rect x="88" y="56" width="8" height="8" fill="#EDEDED"/>
<rect x="136" y="56" width="8" height="8" fill="#EDEDED"/>
<rect x="144" y="56" width="8" height="8" fill="#EDEDED"/>
<rect x="80" y="64" width="8" height="8" fill="#EDEDED"/>
<rect x="104" y="64" width="8" height="8" fill="#EDEDED"/>
<rect x="120" y="64" width="8" height="8" fill="#EDEDED"/>
<rect x="128" y="64" width="8" height="8" fill="#EDEDED"/>
<rect x="136" y="64" width="8" height="8" fill="#EDEDED"/>
<rect x="96" y="72" width="8" height="8" fill="#EDEDED"/>
<rect x="104" y="72" width="8" height="8" fill="#EDEDED"/>
<rect x="112" y="72" width="8" height="8" fill="#EDEDED"/>
<rect x="128" y="72" width="8" height="8" fill="#EDEDED"/>
<rect x="136" y="72" width="8" height="8" fill="#EDEDED"/>
<rect x="144" y="72" width="8" height="8" fill="#EDEDED"/>
<rect x="152" y="72" width="8" height="8" fill="#EDEDED"/>
<rect x="40" y="80" width="8" height="8" fill="#EDEDED"/>
<rect x="48" y="80" width="8" height="8" fill="#EDEDED"/>
<rect x="56" y="80" width="8" height="8" fill="#EDEDED"/>
<rect x="72" y="80" width="8" height="8" fill="#EDEDED"/>
<rect x="88" y="80" width="8" height="8" fill="#EDEDED"/>
<rect x="96" y="80" width="8" height="8" fill="#EDEDED"/>
<rect x="120" y="80" width="8" height="8" fill="#EDEDED"/>
<rect x="128" y="80" width="8" height="8" fill="#EDEDED"/>
<rect x="160" y="80" width="8" height="8" fill="#EDEDED"/>
<rect x="176" y="80" width="8" height="8" fill="#EDEDED"/>
<rect x="24" y="88" width="8" height="8" fill="#EDEDED"/>
<rect x="32" y="88" width="8" height="8" fill="#EDEDED"/>
<rect x="56" y="88" width="8" height="8" fill="#EDEDED"/>
<rect x="64" y="88" width="8" height="8" fill="#EDEDED"/>
<rect x="80" y="88" width="8" height="8" fill="#EDEDED"/>
<rect x="88" y="88" width="8" height="8" fill="#EDEDED"/>
<rect x="104" y="88" width="8" height="8" fill="#EDEDED"/>
<rect x="112" y="88" width="8" height="8" fill="#EDEDED"/>
<rect x="136" y="88" width="8" height="8" fill="#EDEDED"/>
<rect x="144" y="88" width="8" height="8" fill="#EDEDED"/>
<rect x="152" y="88" width="8" height="8" fill="#EDEDED"/>
<rect x="168" y="88" width="8" height="8" fill="#EDEDED"/>
<rect x="184" y="88" width="8" height="8" fill="#EDEDED"/>
<rect x="192" y="88" width="8" height="8" fill="#EDEDED"/>
<rect x="88" y="96" width="8" height="8" fill="#EDEDED"/>
<rect x="96" y="96" width="8" height="8" fill="#EDEDED"/>
<rect x="104" y="96" width="8" height="8" fill="#EDEDED"/>
<rect x="120" y="96" width="8" height="8" fill="#EDEDED"/>
<rect x="128" y="96" width="8" height="8" fill="#EDEDED"/>
<rect x="144" y="96" width="8" height="8" fill="#EDEDED"/>
<rect x="160" y="96" width="8" height="8" fill="#EDEDED"/>
<rect x="168" y="96" width="8" height="8" fill="#EDEDED"/>
<rect x="40" y="104" width="8" height="8" fill="#EDEDED"/>
<rect x="48" y="104" width="8" height="8" fill="#EDEDED"/>
<rect x="64" y="104" width="8" height="8" fill="#EDEDED"/>
<rect x="80" y="104" width="8" height="8" fill="#EDEDED"/>
<rect x="88" y="104" width="8" height="8" fill="#EDEDED"/>
<rect x="96" y="104" width="8" height="8" fill="#EDEDED"/>
<rect x="112" y="104" width="8" height="8" fill="#EDEDED"/>
<rect x="120" y="104" width="8" height="8" fill="#EDEDED"/>
<rect x="160" y="104" width="8" height="8" fill="#EDEDED"/>
<rect x="176" y="104" width="8" height="8" fill="#EDEDED"/>
<rect x="184" y="104" width="8" height="8" fill="#EDEDED"/>
<rect x="200" y="104" width="8" height="8" fill="#EDEDED"/>
<rect x="32" y="112" width="8" height="8" fill="#EDEDED"/>
<rect x="40" y="112" width="8" height="8" fill="#EDEDED"/>
<rect x="48" y="112" width="8" height="8" fill="#EDEDED"/>
<rect x="56" y="112" width="8" height="8" fill="#EDEDED"/>
<rect x="72" y="112" width="8" height="8" fill="#EDEDED"/>
<rect x="88" y="112" width="8" height="8" fill="#EDEDED"/>
<rect x="128" y="112" width="8" height="8" fill="#EDEDED"/>
<rect x="168" y="112" width="8" height="8" fill="#EDEDED"/>
<rect x="176" y="112" width="8" height="8" fill="#EDEDED"/>
<rect x="184" y="112" width="8" height="8" fill="#EDEDED"/>
<rect x="192" y="112" width="8" height="8" fill="#EDEDED"/>
<rect x="48" y="120" width="8" height="8" fill="#EDEDED"/>
<rect x="56" y="120" width="8" height="8" fill="#EDEDED"/>
<rect x="80" y="120" width="8" height="8" fill="#EDEDED"/>
<rect x="88" y="120" width="8" height="8" fill="#EDEDED"/>
<rect x="104" y="120" width="8" height="8" fill="#EDEDED"/>
<rect x="112" y="120" width="8" height="8" fill="#EDEDED"/>
<rect x="120" y="120" width="8" height="8" fill="#EDEDED"/>
<rect x="160" y="120" width="8" height="8" fill="#EDEDED"/>
<rect x="168" y="120" width="8" height="8" fill="#EDEDED"/>
<rect x="176" y="120" width="8" height="8" fill="#EDEDED"/>
<rect x="184" y="120" width="8" height="8" fill="#EDEDED"/>
<rect x="192" y="120" width="8" height="8" fill="#EDEDED"/>
<rect x="48" y="128" width="8" height="8" fill="#EDEDED"/>
<rect x="56" y="128" width="8" height="8" fill="#EDEDED"/>
<rect x="80" y="128" width="8" height="8" fill="#EDEDED"/>
<rect x="96" y="128" width="8" height="8" fill="#EDEDED"/>
<rect x="112" y="128" width="8" height="8" fill="#EDEDED"/>
<rect x="120" y="128" width="8" height="8" fill="#EDEDED"/>
<rect x="128" y="128" width="8" height="8" fill="#EDEDED"/>
<rect x="136" y="128" width="8" height="8" fill="#EDEDED"/>
<rect x="168" y="128" width="8" height="8" fill="#EDEDED"/>
<rect x="32" y="136" width="8" height="8" fill="#EDEDED"/>
<rect x="40" y="136" width="8" height="8" fill="#EDEDED"/>
<rect x="48" y="136" width="8" height="8" fill="#EDEDED"/>
<rect x="56" y="136" width="8" height="8" fill="#EDEDED"/>
<rect x="72" y="136" width="8" height="8" fill="#EDEDED"/>
<rect x="88" y="136" width="8" height="8" fill="#EDEDED"/>
<rect x="104" y="136" width="8" height="8" fill="#EDEDED"/>
<rect x="120" y="136" width="8" height="8" fill="#EDEDED"/>
<rect x="128" y="136" width="8" height="8" fill="#EDEDED"/>
<rect x="136" y="136" width="8" height="8" fill="#EDEDED"/>
<rect x="144" y="136" width="8" height="8" fill="#EDEDED"/>
<rect x="160" y="136" width="8" height="8" fill="#EDEDED"/>
<rect x="168" y="136" width="8" height="8" fill="#EDEDED"/>
<rect x="176" y="136" width="8" height="8" fill="#EDEDED"/>
<rect x="184" y="136" width="8" height="8" fill="#EDEDED"/>
<rect x="192" y="136" width="8" height="8" fill="#EDEDED"/>
<rect x="24" y="144" width="8" height="8" fill="#EDEDED"/>
<rect x="40" y="144" width="8" height="8" fill="#EDEDED"/>
<rect x="56" y="144" width="8" height="8" fill="#EDEDED"/>
<rect x="72" y="144" width="8" height="8" fill="#EDEDED"/>
<rect x="112" y="144" width="8" height="8" fill="#EDEDED"/>
<rect x="120" y="144" width="8" height="8" fill="#EDEDED"/>
<rect x="128" y="144" width="8" height="8" fill="#EDEDED"/>
<rect x="144" y="144" width="8" height="8" fill="#EDEDED"/>
<rect x="152" y="144" width="8" height="8" fill="#EDEDED"/>
<rect x="160" y="144" width="8" height="8" fill="#EDEDED"/>
<rect x="176" y="144" width="8" height="8" fill="#EDEDED"/>
<rect x="184" y="144" width="8" height="8" fill="#EDEDED"/>
<rect x="192" y="144" width="8" height="8" fill="#EDEDED"/>
<rect x="32" y="152" width="8" height="8" fill="#EDEDED"/>
<rect x="56" y="152" width="8" height="8" fill="#EDEDED"/>
<rect x="72" y="152" width="8" height="8" fill="#EDEDED"/>
<rect x="88" y="152" width="8" height="8" fill="#EDEDED"/>
<rect x="96" y="152" width="8" height="8" fill="#EDEDED"/>
<rect x="112" y="152" width="8" height="8" fill="#EDEDED"/>
<rect x="128" y="152" width="8" height="8" fill="#EDEDED"/>
<rect x="136" y="152" width="8" height="8" fill="#EDEDED"/>
<rect x="152" y="152" width="8" height="8" fill="#EDEDED"/>
<rect x="200" y="152" width="8" height="8" fill="#EDEDED"/>
<rect x="88" y="160" width="8" height="8" fill="#EDEDED"/>
<rect x="96" y="160" width="8" height="8" fill="#EDEDED"/>
<rect x="112" y="160" width="8" height="8" fill="#EDEDED"/>
<rect x="120" y="160" width="8" height="8" fill="#EDEDED"/>
<rect x="144" y="160" width="8" height="8" fill="#EDEDED"/>
<rect x="152" y="160" width="8" height="8" fill="#EDEDED"/>
<rect x="160" y="160" width="8" height="8" fill="#EDEDED"/>
<rect x="168" y="160" width="8" height="8" fill="#EDEDED"/>
<rect x="184" y="160" width="8" height="8" fill="#EDEDED"/>
<rect x="192" y="160" width="8" height="8" fill="#EDEDED"/>
<rect x="200" y="160" width="8" height="8" fill="#EDEDED"/>
<rect x="80" y="168" width="8" height="8" fill="#EDEDED"/>
<rect x="96" y="168" width="8" height="8" fill="#EDEDED"/>
<rect x="104" y="168" width="8" height="8" fill="#EDEDED"/>
<rect x="128" y="168" width="8" height="8" fill="#EDEDED"/>
<rect x="136" y="168" width="8" height="8" fill="#EDEDED"/>
<rect x="144" y="168" width="8" height="8" fill="#EDEDED"/>
<rect x="160" y="168" width="8" height="8" fill="#EDEDED"/>
<rect x="168" y="168" width="8" height="8" fill="#EDEDED"/>
<rect x="176" y="168" width="8" height="8" fill="#EDEDED"/>
<rect x="184" y="168" width="8" height="8" fill="#EDEDED"/>
<rect x="192" y="168" width="8" height="8" fill="#EDEDED"/>
<rect x="88" y="176" width="8" height="8" fill="#EDEDED"/>
<rect x="96" y="176" width="8" height="8" fill="#EDEDED"/>
<rect x="160" y="176" width="8" height="8" fill="#EDEDED"/>
<rect x="176" y="176" width="8" height="8" fill="#EDEDED"/>
<rect x="200" y="176" width="8" height="8" fill="#EDEDED"/>
<rect x="112" y="184" width="8" height="8" fill="#EDEDED"/>
<rect x="128" y="184" width="8" height="8" fill="#EDEDED"/>
<rect x="136" y="184" width="8" height="8" fill="#EDEDED"/>
<rect x="152" y="184" width="8" height="8" fill="#EDEDED"/>
<rect x="168" y="184" width="8" height="8" fill="#EDEDED"/>
<rect x="176" y="184" width="8" height="8" fill="#EDEDED"/>
<rect x="192" y="184" width="8" height="8" fill="#EDEDED"/>
<rect x="200" y="184" width="8" height="8" fill="#EDEDED"/>
<rect x="88" y="192" width="8" height="8" fill="#EDEDED"/>
<rect x="112" y="192" width="8" height="8" fill="#EDEDED"/>
<rect x="120" y="192" width="8" height="8" fill="#EDEDED"/>
<rect x="136" y="192" width="8" height="8" fill="#EDEDED"/>
<rect x="144" y="192" width="8" height="8" fill="#EDEDED"/>
<rect x="176" y="192" width="8" height="8" fill="#EDEDED"/>
<rect x="184" y="192" width="8" height="8" fill="#EDEDED"/>
<rect x="80" y="200" width="8" height="8" fill="#EDEDED"/>
<rect x="112" y="200" width="8" height="8" fill="#EDEDED"/>
<rect x="120" y="200" width="8" height="8" fill="#EDEDED"/>
<rect x="128" y="200" width="8" height="8" fill="#EDEDED"/>
<rect x="160" y="200" width="8" height="8" fill="#EDEDED"/>
<rect x="176" y="200" width="8" height="8" fill="#EDEDED"/>
<rect x="184" y="200" width="8" height="8" fill="#EDEDED"/>
<rect x="192" y="200" width="8" height="8" fill="#EDEDED"/>
<rect x="200" y="200" width="8" height="8" fill="#EDEDED"/>
<rect x="16" y="16" width="56" height="56" fill="#EDEDED"/>
<rect x="24" y="24" width="40" height="40" fill="#000"/>
<rect x="32" y="32" width="24" height="24" fill="#EDEDED"/>
<rect x="160" y="16" width="56" height="56" fill="#EDEDED"/>
<rect x="168" y="24" width="40" height="40" fill="#000"/>
<rect x="176" y="32" width="24" height="24" fill="#EDEDED"/>
<rect x="16" y="160" width="56" height="56" fill="#EDEDED"/>
<rect x="24" y="168" width="40" height="40" fill="#000"/>
<rect x="32" y="176" width="24" height="24" fill="#EDEDED"/>
</g>
<rect x="10" y="10" width="212" height="212" fill="none" stroke="#FF5500" stroke-opacity="0.35" stroke-width="1"/>
<text x="116.0" y="230" fill="#FF5500" font-family="ui-monospace,monospace" font-size="11" letter-spacing="3" text-anchor="middle">WECHAT · 微信</text>
</svg>